<svg xmlns="http://www.w3.org/2000/svg" xmlns:xlink="http://www.w3.org/1999/xlink" viewBox="0 0 512 512" width="512px" height="512px"><defs><linearGradient id="qQGpbpB043VOZ~8jgwXdKa" x1="256" x2="256" y1="6.878" y2="496.01" gradientUnits="userSpaceOnUse"><stop offset="0" stop-color="#00efd1"/><stop offset="1" stop-color="#00acea"/></linearGradient><linearGradient id="qQGpbpB043VOZ~8jgwXdKb" x1="250.783" x2="250.783" y1="6.878" y2="496.01" xlink:href="#qQGpbpB043VOZ~8jgwXdKa"/></defs><g data-name="&lt;Group&gt;"><path fill="url(#qQGpbpB043VOZ~8jgwXdKa)" d="M425.021,88H390V60.374C390,49.107,380.47,40,369.2,40H338.424A20.4,20.4,0,0,0,318,60.374V88H194V60.374A20.4,20.4,0,0,0,173.576,40H142.8C131.53,40,122,49.107,122,60.374V88H86.979A41.018,41.018,0,0,0,46,129.234V430.759A41.024,41.024,0,0,0,86.979,472H425.021A41.024,41.024,0,0,0,466,430.759V129.234A41.018,41.018,0,0,0,425.021,88ZM338,60.433a.433.433,0,0,1,.434-.433h31.132a.433.433,0,0,1,.434.433v61.134a.433.433,0,0,1-.434.433H338.434a.433.433,0,0,1-.434-.433Zm-196,0a.433.433,0,0,1,.434-.433h31.132a.433.433,0,0,1,.434.433v61.134a.433.433,0,0,1-.434.433H142.434a.433.433,0,0,1-.434-.433ZM446,430.759A21,21,0,0,1,425.021,452H86.979A21,21,0,0,1,66,430.759V209H446ZM446,189H66V129.234A21,21,0,0,1,86.979,108H122v13.409A20.905,20.905,0,0,0,142.8,142h30.778A20.583,20.583,0,0,0,194,121.409V108H318v13.409A20.583,20.583,0,0,0,338.424,142H369.2A20.905,20.905,0,0,0,390,121.409V108h35.021A21,21,0,0,1,446,129.234Z" data-name="&lt;Compound Path&gt;"/><path fill="url(#qQGpbpB043VOZ~8jgwXdKb)" d="M198.35,351.217l-9.014,52.335a10,10,0,0,0,14.5,10.552l46.946-24.636L297.729,414.1a10,10,0,0,0,14.5-10.552l-9.013-52.335,37.835-36.65a10,10,0,0,0-5.479-17.072l-52.367-7.835-23.455-47.528a10,10,0,0,0-17.936,0L218.36,289.66,165.993,297.5a10,10,0,0,0-5.478,17.072Zm28.142-42.551a10,10,0,0,0,7.488-5.464l16.8-34.048,16.8,34.048a10,10,0,0,0,7.488,5.464L312.6,314.28l-27.095,26.246a10,10,0,0,0-2.9,8.88l6.472,37.573L255.43,369.32a10,10,0,0,0-9.293,0l-33.653,17.659,6.472-37.573a10,10,0,0,0-2.9-8.88L188.965,314.28Z" data-name="&lt;Compound Path&gt;"/></g></svg>